<?xml version="1.0" encoding="UTF-8"?>
<svg xmlns="http://www.w3.org/2000/svg" viewBox="0 0 128 128" role="img" aria-label="CannaClicker item cultivator">
  <defs>
    <filter id="softShadow" x="-30%" y="-30%" width="160%" height="170%">
      <feDropShadow dx="0" dy="7" stdDeviation="5" flood-color="#000" flood-opacity=".28"/>
    </filter>
    <linearGradient id="leafGradient" x1="0" x2="1" y1="0" y2="1">
      <stop offset="0" stop-color="#caff58"/>
      <stop offset=".48" stop-color="#19c96f"/>
      <stop offset="1" stop-color="#0c7f46"/>
    </linearGradient>
    <linearGradient id="goldGradient" x1="0" x2="1" y1="0" y2="1">
      <stop offset="0" stop-color="#fff0a8"/>
      <stop offset=".55" stop-color="#ffd15a"/>
      <stop offset="1" stop-color="#ff9f43"/>
    </linearGradient>
    <linearGradient id="glassGradient" x1="0" x2="1" y1="0" y2="1">
      <stop offset="0" stop-color="#e8fff8" stop-opacity=".95"/>
      <stop offset=".55" stop-color="#76ffd0" stop-opacity=".72"/>
      <stop offset="1" stop-color="#71c7ff" stop-opacity=".48"/>
    </linearGradient>
  </defs>
  <g filter="url(#softShadow)">
      <path d="M64 8 108 32v48l-44 40-44-40V32Z" fill="#10251a" stroke="#19c96f" stroke-width="4" stroke-linejoin="round"/>
      <path d="M64 15 100 35v40l-36 33-36-33V35Z" fill="#0b1c13" opacity=".94"/>
      <circle cx="64" cy="42" r="13" fill="#ffd15a" stroke="#f7ffe8" stroke-width="4"/><path d="M41 89c4-22 42-22 46 0" fill="#19c96f" stroke="#f7ffe8" stroke-width="4"/><path d="M40 62h48" stroke="#76ffd0" stroke-width="5" stroke-linecap="round"/><path d="M48 72h32" stroke="#07130d" stroke-width="4" stroke-linecap="round" opacity=".45"/>
      <path d="M35 96c16 11 42 11 58 0" fill="none" stroke="#19c96f" stroke-width="3" stroke-linecap="round" opacity=".6"/>
    </g>
</svg>