<?xml version="1.0" encoding="UTF-8"?>
<svg xmlns="http://www.w3.org/2000/svg" viewBox="0 0 128 128" role="img" aria-label="CannaClicker item genetics_lab">
  <defs>
    <filter id="softShadow" x="-30%" y="-30%" width="160%" height="170%">
      <feDropShadow dx="0" dy="7" stdDeviation="5" flood-color="#000" flood-opacity=".28"/>
    </filter>
    <linearGradient id="leafGradient" x1="0" x2="1" y1="0" y2="1">
      <stop offset="0" stop-color="#caff58"/>
      <stop offset=".48" stop-color="#19c96f"/>
      <stop offset="1" stop-color="#0c7f46"/>
    </linearGradient>
    <linearGradient id="goldGradient" x1="0" x2="1" y1="0" y2="1">
      <stop offset="0" stop-color="#fff0a8"/>
      <stop offset=".55" stop-color="#ffd15a"/>
      <stop offset="1" stop-color="#ff9f43"/>
    </linearGradient>
    <linearGradient id="glassGradient" x1="0" x2="1" y1="0" y2="1">
      <stop offset="0" stop-color="#e8fff8" stop-opacity=".95"/>
      <stop offset=".55" stop-color="#76ffd0" stop-opacity=".72"/>
      <stop offset="1" stop-color="#71c7ff" stop-opacity=".48"/>
    </linearGradient>
  </defs>
  <g filter="url(#softShadow)">
      <path d="M64 8 108 32v48l-44 40-44-40V32Z" fill="#10251a" stroke="#b58cff" stroke-width="4" stroke-linejoin="round"/>
      <path d="M64 15 100 35v40l-36 33-36-33V35Z" fill="#0b1c13" opacity=".94"/>
      <path d="M55 34v24L42 87h44L73 58V34" fill="url(#glassGradient)" stroke="#f7ffe8" stroke-width="4" stroke-linejoin="round"/><path d="M52 34h24" stroke="#76ffd0" stroke-width="6" stroke-linecap="round"/><path d="M55 76c8-8 18 8 26 0M55 65c8 8 18-8 26 0" stroke="#b58cff" stroke-width="4" stroke-linecap="round"/>
      <path d="M35 96c16 11 42 11 58 0" fill="none" stroke="#b58cff" stroke-width="3" stroke-linecap="round" opacity=".6"/>
    </g>
</svg>